<?xml version="1.0" standalone="no"?>
<!DOCTYPE svg PUBLIC "-//W3C//DTD SVG 20010904//EN"
 "http://www.w3.org/TR/2001/REC-SVG-20010904/DTD/svg10.dtd">
<svg version="1.0" xmlns="http://www.w3.org/2000/svg"
 width="518.000000pt" height="518.000000pt" viewBox="0 0 518.000000 518.000000"
 preserveAspectRatio="xMidYMid meet">
<metadata>
Created by potrace 1.11, written by Peter Selinger 2001-2013
</metadata>
<g transform="translate(0.000000,518.000000) scale(0.100000,-0.100000)"
fill="#000000" stroke="none">
<path d="M2488 4635 c-2 -2 -43 -5 -93 -9 -109 -7 -128 -10 -274 -42 -666
-148 -1221 -634 -1464 -1284 -87 -233 -122 -442 -121 -715 0 -252 27 -425 98
-637 14 -42 26 -81 26 -86 0 -5 -117 -9 -290 -9 -250 -1 -293 -3 -315 -17 -64
-42 -64 -140 1 -182 21 -15 68 -17 367 -17 l343 0 39 -71 c151 -265 417 -541
691 -713 146 -91 418 -209 550 -238 10 -2 60 -13 109 -24 50 -11 117 -23 150
-27 33 -3 69 -8 80 -10 33 -7 327 -6 380 1 28 3 64 8 80 10 102 13 134 19 203
36 42 11 82 21 87 23 6 1 29 8 52 15 73 20 257 97 339 141 195 105 368 235
522 394 87 90 233 276 263 335 8 14 16 28 19 31 3 3 16 26 30 51 l24 46 352
-2 c330 -2 355 -1 384 16 72 44 63 163 -15 189 -39 13 -613 17 -624 4 -5 -5
-25 -47 -46 -94 -21 -47 -42 -91 -48 -97 -13 -18 -1118 -19 -1150 -1 -12 6
-36 27 -54 47 -18 20 -33 33 -33 29 0 -4 -22 -100 -49 -215 -28 -114 -52 -219
-55 -233 -2 -14 -22 -99 -44 -190 -22 -91 -55 -228 -73 -305 -28 -122 -37
-144 -65 -173 -27 -27 -39 -32 -79 -32 -38 0 -52 5 -76 29 -16 16 -29 35 -30
43 -1 16 -1 19 -34 153 -14 61 -35 146 -45 190 -53 226 -92 392 -95 405 -2 8
-33 141 -70 295 -80 337 -114 483 -120 511 -32 149 -83 335 -88 319 -3 -11
-29 -117 -56 -235 -28 -118 -65 -271 -81 -340 -17 -69 -32 -134 -34 -145 -12
-62 -29 -108 -50 -132 l-24 -28 -609 0 -608 0 -22 45 c-12 25 -33 71 -47 103
l-26 57 590 0 589 0 10 38 c6 20 15 60 21 87 6 28 31 133 55 235 24 102 61
255 81 340 97 415 123 512 139 530 41 46 137 41 163 -7 9 -16 44 -142 57 -203
12 -54 31 -136 66 -285 23 -93 42 -176 44 -185 2 -8 20 -85 40 -170 21 -85 59
-247 85 -360 47 -201 67 -286 110 -465 12 -49 23 -94 24 -100 11 -60 41 -175
45 -175 3 0 32 114 65 253 147 634 146 630 181 653 67 44 111 25 210 -91 l80
-94 580 2 580 2 32 95 c17 52 34 106 37 120 3 14 14 68 25 120 32 154 39 244
36 440 -4 194 -5 205 -36 365 -89 461 -355 896 -729 1195 -304 243 -701 403
-1080 436 -76 6 -278 13 -282 9z"/>
</g>
</svg>
